<?xml version="1.0" encoding="utf-8"?>
<!-- Generator: Adobe Illustrator 26.0.0, SVG Export Plug-In . SVG Version: 6.00 Build 0)  -->
<svg version="1.1" id="Layer_1" xmlns="http://www.w3.org/2000/svg" xmlns:xlink="http://www.w3.org/1999/xlink" x="0px" y="0px"
	 viewBox="0 0 141.7 141.7" style="enable-background:new 0 0 141.7 141.7;" xml:space="preserve">
<style type="text/css">
	.st0{fill:#453188;}
</style>
<path class="st0" d="M95.2,49.2l-24-5.6c-0.2-0.1-0.4-0.1-0.6,0l-24,5.6c-0.6,0.1-1,0.7-1,1.3v17.7c0,7.3,2.4,14.4,7,20.2
	c4.5,5.7,10.9,9.8,18,11.4c0.2,0.1,0.4,0.1,0.6,0c7.1-1.7,13.5-5.7,18-11.4c4.5-5.7,7-12.9,7-20.2V50.5
	C96.2,49.9,95.8,49.3,95.2,49.2L95.2,49.2z M93.5,68.2c0,6.7-2.2,13.1-6.3,18.4c-4.1,5.2-9.9,9-16.3,10.5
	c-6.5-1.6-12.2-5.3-16.3-10.5c-4.1-5.2-6.3-11.7-6.3-18.4V51.6l22.7-5.3l22.7,5.3L93.5,68.2z"/>
<path class="st0" d="M63.7,58.9v1.6h-4.5c-0.7,0-1.3,0.6-1.3,1.3V81c0,0.4,0.1,0.7,0.4,0.9c0.3,0.2,0.6,0.4,0.9,0.4h23.5
	c0.4,0,0.7-0.1,0.9-0.4c0.2-0.3,0.4-0.6,0.4-0.9V61.8c0-0.4-0.1-0.7-0.4-0.9c-0.3-0.2-0.6-0.4-0.9-0.4h-4.5v-1.6
	c0-2.6-1.4-4.9-3.6-6.2c-2.2-1.3-5-1.3-7.2,0C65,53.9,63.7,56.3,63.7,58.9L63.7,58.9z M81.3,79.7H60.5V63.1h20.8V79.7z M75.4,58.9
	v1.6h-9.1v-1.6c0-1.6,0.9-3.1,2.3-3.9c1.4-0.8,3.1-0.8,4.5,0C74.5,55.8,75.4,57.3,75.4,58.9z"/>
<path class="st0" d="M70.9,65.3c-1.2,0-2.3,0.5-3.1,1.5c-0.7,1-1,2.2-0.6,3.4c0.3,1.2,1.2,2.1,2.3,2.5v3c0,0.7,0.6,1.3,1.3,1.3
	c0.7,0,1.3-0.6,1.3-1.3v-3c1.1-0.4,2-1.3,2.3-2.5s0.1-2.4-0.6-3.4C73.2,65.9,72.1,65.3,70.9,65.3L70.9,65.3z M70.9,68L70.9,68
	c0.5,0,0.9,0.3,1.1,0.7c0.2,0.4,0.1,0.9-0.2,1.2c-0.3,0.3-0.8,0.4-1.2,0.2c-0.4-0.2-0.7-0.6-0.7-1.1c0-0.3,0.1-0.6,0.3-0.8
	C70.3,68.1,70.6,68,70.9,68L70.9,68z"/>
</svg>
