<?xml version="1.0" encoding="utf-8"?>
<!-- Generator: Adobe Illustrator 26.0.0, SVG Export Plug-In . SVG Version: 6.00 Build 0)  -->
<svg version="1.1" id="Layer_1" xmlns="http://www.w3.org/2000/svg" xmlns:xlink="http://www.w3.org/1999/xlink" x="0px" y="0px"
	 viewBox="0 0 141.7 141.7" style="enable-background:new 0 0 141.7 141.7;" xml:space="preserve">
<style type="text/css">
	.st0{fill:#F5AFB0;}
	.st1{fill:#EA5929;}
	.st2{fill:#453188;}
	.st3{fill:#FCF9F6;}
	.st4{fill:#EC6247;}
	.st5{fill:#43358A;}
</style>
<path class="st0" d="M84.6,100.5h17c1.5,0,2.4-0.3,2.4-0.3c2.1-0.5,3.5-2,3.5-2c2.4-2.3,2.5-7,2.5-7.5l0-13.1c0-0.9-0.4-1.9-0.4-2
	c-0.4-1.1-1.4-2.3-3.5-2.3l-2.5,0c-0.1,0-0.1,0-0.2,0h-1.7c0,0-0.1,0-0.1,0l-3.1,0c0,0,0,0,0,0c-1.3,0-2.4,0.4-3,1.1
	c-0.8,0.9-0.9,2-0.8,2.6c0.1,1,0.8,2.4,0.9,2.6l2.1,4.5l-12,0c0,0-1.7,0-2.8,0.1c-2.1,0.3-3.5,1.6-3.6,1.6c-3,2.4-3.2,5.5-3.2,6.3
	c0,0.1,0,0.2,0,0.2c0,4.1,2.8,6.2,2.9,6.3c1.3,1.2,2.9,1.6,3.2,1.7C83.1,100.6,84.5,100.5,84.6,100.5z"/>
<path class="st0" d="M60.7,42.5h-17c-1.5,0-2.4,0.3-2.4,0.3c-2.1,0.5-3.5,2-3.5,2c-2.4,2.3-2.5,7-2.5,7.5l0,13.1
	c0,0.9,0.4,1.9,0.4,2c0.4,1.1,1.4,2.3,3.5,2.3l2.5,0c0.1,0,0.1,0,0.2,0h1.7c0,0,0.1,0,0.1,0l3.1,0c0,0,0,0,0,0c1.3,0,2.4-0.4,3-1.1
	c0.8-0.9,0.9-2,0.8-2.6c-0.1-1-0.8-2.4-0.9-2.6L47.7,59l12,0c0,0,1.7,0,2.8-0.1c2.1-0.3,3.5-1.6,3.6-1.6c3-2.4,3.2-5.5,3.2-6.3
	c0-0.1,0-0.2,0-0.2c0-4.1-2.8-6.2-2.9-6.3c-1.3-1.2-2.9-1.6-3.2-1.7C62.2,42.5,60.8,42.5,60.7,42.5z"/>
<path class="st1" d="M72.4,96.1h-2.2V95h2.2V96.1z M67.9,96.1h-4.5V95h4.5V96.1z M61.2,96.1l-4.5,0V95l4.5,0V96.1z M54.5,96
	c-1.6-0.1-3.1-0.4-4.5-0.8l0.3-1.1c1.3,0.4,2.7,0.6,4.3,0.8L54.5,96z M47.9,94.4C46.4,93.8,45,93,43.9,92l0.8-0.9
	c1,0.9,2.2,1.6,3.6,2.2L47.9,94.4z M42.4,90.3c-1-1.3-1.6-2.7-2-4.2l1.1-0.3c0.3,1.4,1,2.7,1.8,3.8L42.4,90.3z M40,83.7l0-4.6h1.1
	v4.5L40,83.7z M41.2,76.9H40v-3.4l1.1,0V76.9z M105,69.4v-2.2h1.1v2.2H105z M106.2,64.9H105v-4.5h1.1V64.9z M104.8,58.4
	c-0.3-1.3-1-2.6-1.9-3.7l0.9-0.7c1,1.3,1.8,2.7,2.1,4.1L104.8,58.4z M101.4,53.2c-1-0.9-2.3-1.7-3.6-2.3l0.5-1
	c1.5,0.7,2.8,1.5,3.9,2.5L101.4,53.2z M95.7,50.1c-1.4-0.4-2.8-0.7-4.2-0.9l0.1-1.1c1.5,0.2,3,0.5,4.5,1L95.7,50.1z M89.4,49.1h-4.5
	v-1.1h4.5V49.1z M82.7,49.1h-4.5v-1.1h4.5V49.1z M76,49.1h-2.9l0-1.1H76V49.1z"/>
</svg>
