<?xml version="1.0" encoding="utf-8"?>
<!-- Generator: Adobe Illustrator 26.0.0, SVG Export Plug-In . SVG Version: 6.00 Build 0)  -->
<svg version="1.1" id="Layer_1" xmlns="http://www.w3.org/2000/svg" xmlns:xlink="http://www.w3.org/1999/xlink" x="0px" y="0px"
	 viewBox="0 0 566.9 226.8" style="enable-background:new 0 0 566.9 226.8;" xml:space="preserve">
<style type="text/css">
	.st0{fill:#453188;}
	.st1{fill:#EA592A;}
	.st2{fill:#F5AFB0;}
</style>
<g>
	<g>
		<g>
			<path class="st0" d="M415,94.4c-8.8,0-14.3-7-14.3-15.6v-0.2c0-8.3,5.7-15.4,13.7-15.4c5.7,0,9.3,2.4,12.9,6.2l9.8-10.5
				c-5.3-5.9-11.9-9.5-22.6-9.5c-17.3,0-29.6,13.3-29.6,29.4V79c0,16.1,12.4,29.2,29.4,29.2c11.3,0,17.6-4.3,23.1-10.3l-9.4-9.5
				C424.1,92.1,420.4,94.4,415,94.4z"/>
			<path class="st0" d="M463.6,35.9h-16v14.4h-3.7h-3v13.7h3h3.7v26.8c0,13.1,6.6,17,16.5,17c5.4,0,9.3-1.3,12.7-3.3V91.7
				c-2.3,1.3-5,2-7.9,2c-3.6,0-5.2-1.8-5.2-5.5V64.1h13.3V50.4h-13.3V35.9z"/>
			<path class="st0" d="M511.9,49.3c-17.6,0-30.7,13.2-30.7,29.4V79c0,16.2,13,29.2,30.5,29.2c17.6,0,30.7-13.2,30.7-29.4v-0.2
				C542.4,62.3,529.4,49.3,511.9,49.3z M526.6,79c0,8.3-5.5,15.4-14.7,15.4c-8.9,0-14.9-7.3-14.9-15.6v-0.2
				c0-8.3,5.5-15.4,14.7-15.4c8.9,0,14.9,7.3,14.9,15.6V79z"/>
		</g>
		<g>
			<rect x="386.5" y="122.3" class="st0" width="5.4" height="67.5"/>
			<path class="st0" d="M421.9,141.6c-3.2,0-6.2,0.4-8.9,1.1c-2.6,0.7-5.3,1.8-7.8,3l-0.4,0.2l2,4.8l0.4-0.2c2.1-1.1,4.3-2,6.7-2.7
				c2.3-0.7,4.9-1,7.7-1c4.7,0,8.4,1.2,11,3.4c2.6,2.3,3.9,5.7,3.9,10.3v1.4c-2.1-0.5-4.3-1-6.4-1.3c-2.4-0.4-5.3-0.6-8.6-0.6
				c-3.1,0-5.9,0.3-8.4,1c-2.5,0.7-4.7,1.7-6.5,3c-1.8,1.3-3.3,3-4.3,4.9c-1,1.9-1.6,4.2-1.6,6.7v0.2c0,2.5,0.6,4.7,1.7,6.6
				c1.1,1.9,2.5,3.5,4.3,4.7c1.7,1.2,3.7,2.2,5.9,2.8c2.2,0.6,4.4,0.9,6.6,0.9c2.2,0,4.3-0.3,6.2-0.8c1.9-0.5,3.6-1.2,5.1-2
				c1.5-0.8,2.8-1.8,4-2.9c0.8-0.7,1.5-1.5,2.1-2.2v6.9h5.3v-29.5c0-5.7-1.6-10.2-4.9-13.5C433.4,143.4,428.4,141.6,421.9,141.6z
				 M436.6,166.9v4.9c0,2-0.5,3.9-1.4,5.6c-0.9,1.7-2.2,3.2-3.7,4.4c-1.6,1.2-3.4,2.2-5.5,2.8c-2.1,0.7-4.3,1-6.6,1
				c-1.7,0-3.4-0.2-5-0.7c-1.6-0.5-3-1.1-4.2-2c-1.2-0.9-2.1-1.9-2.8-3.2c-0.7-1.2-1-2.7-1-4.3v-0.2c0-3.1,1.2-5.6,3.8-7.5
				c2.6-1.9,6.3-2.9,11.1-2.9c3.3,0,6.3,0.2,8.9,0.7C432.5,166,434.7,166.5,436.6,166.9z"/>
			<path class="st0" d="M492.8,147.7c-2.2-2.1-4.6-3.7-7.4-4.8c-2.7-1.1-5.6-1.7-8.4-1.7c-2.4,0-4.5,0.3-6.5,1
				c-2,0.7-3.7,1.5-5.3,2.6c-1.6,1.1-3,2.3-4.3,3.7c-0.9,1-1.8,2.1-2.6,3.2v-29.4h-5.4v67.5h5.4v-9c0.8,1.1,1.6,2.1,2.5,3.1
				c1.3,1.4,2.7,2.6,4.3,3.6c1.6,1.1,3.4,1.9,5.4,2.5c2,0.6,4.2,0.9,6.5,0.9c2.8,0,5.7-0.6,8.4-1.7c2.7-1.1,5.2-2.8,7.4-4.9
				c2.2-2.1,3.9-4.8,5.3-7.8c1.3-3.1,2-6.5,2-10.4v-0.2c0-3.8-0.7-7.3-2-10.4C496.8,152.5,495,149.8,492.8,147.7z M494.4,166v0.2
				c0,3-0.5,5.8-1.4,8.2c-0.9,2.4-2.2,4.4-3.8,6.1c-1.6,1.6-3.5,2.9-5.7,3.8c-4.2,1.7-9.4,1.8-13.9-0.1c-2.2-0.9-4.2-2.3-5.9-4
				c-1.7-1.7-3.1-3.8-4.2-6.1c-1-2.4-1.6-5.1-1.6-8v-0.2c0-2.9,0.5-5.6,1.6-7.9c1-2.4,2.4-4.4,4.2-6.2c1.7-1.7,3.7-3.1,5.9-4
				c2.2-0.9,4.5-1.4,6.9-1.4c2.4,0,4.7,0.5,6.8,1.4c2.2,0.9,4.1,2.2,5.7,3.9c1.6,1.7,2.9,3.8,3.9,6.2
				C494,160.3,494.4,163.1,494.4,166z"/>
			<path class="st0" d="M541,171c-0.9-1.4-2.1-2.7-3.6-3.7c-1.5-1-3.2-1.9-5-2.5c-1.8-0.6-3.7-1.2-5.6-1.8c-1.6-0.5-3.2-1-4.8-1.5
				c-1.5-0.5-2.9-1.1-4.1-1.7c-1.1-0.6-2-1.4-2.7-2.3c-0.7-0.9-1-1.9-1-3v-0.2c0-2.2,0.9-4,2.7-5.4s4.3-2.2,7.4-2.2
				c2.4,0,4.9,0.4,7.3,1.3c2.4,0.8,4.7,2,6.8,3.3l0.4,0.3l2.9-4.5l-0.4-0.2c-2.3-1.6-5-2.9-8-3.9c-5.4-1.7-10.8-1.9-15.1-0.4
				c-1.9,0.7-3.6,1.6-5,2.8c-1.4,1.2-2.5,2.6-3.3,4.2c-0.8,1.6-1.2,3.4-1.2,5.3v0.2c0,2.1,0.5,4,1.5,5.4c1,1.4,2.3,2.7,3.8,3.6
				c1.5,1,3.3,1.7,5.3,2.4c1.9,0.6,3.8,1.2,5.7,1.7c1.6,0.5,3.1,1,4.6,1.5c1.4,0.5,2.7,1.1,3.8,1.8c1.1,0.7,2,1.5,2.6,2.4
				c0.6,0.9,0.9,2,0.9,3.2v0.2c0,2.6-1,4.6-3.1,6.1c-2.1,1.5-4.7,2.3-7.7,2.3c-2.9,0-5.8-0.5-8.5-1.6c-2.8-1-5.4-2.5-7.9-4.5
				l-0.4-0.3l-3.2,4.3l0.3,0.3c2.5,2,5.5,3.7,9,5c3.4,1.3,6.9,1.9,10.4,1.9c2.3,0,4.4-0.3,6.4-1c2-0.7,3.8-1.6,5.3-2.8
				c1.5-1.2,2.7-2.7,3.5-4.4c0.8-1.7,1.3-3.7,1.3-5.8v-0.2C542.4,174.3,541.9,172.5,541,171z"/>
		</g>
	</g>
	<g>
		<g>
			<path class="st1" d="M140,101.3c-0.1,0.1-0.5,0.2-0.8,0.4v46.7c0,4.5-1.2,17.4-7,24.2c-6.5,9.1-17.2,10.4-27.9,10.4
				c-37,0-67.5-28.9-69.5-65.8l-0.1-1.5c0-0.7,0-1.5,0-2.2v-0.1c0-0.9,0.1-3.7,0.1-4.2c2.3-36.6,32.8-65.3,69.5-65.3
				c2.7,0,5.5,0.1,8.2,0.4c2.1-4.5,5.8-7,9.1-8.4c0,0,0.1,0,0.2-0.1c-6.9-1.9-13.6-2-17.5-2c-42,0-76.9,32.8-79.5,74.6
				c0,0-0.2,3.3-0.2,5c-0.1,1.6,0.2,5.1,0.2,5.1c2.7,41.9,37.4,74.5,79.5,74.5c7.7,0,25.7,0,35.8-14.2c9-10.6,9.1-29.6,9.1-30.4
				V97.1L140,101.3z"/>
		</g>
		<g>
			<path class="st2" d="M198.7,193c-3.9,0-18-1.1-29.4-14.9c-0.3-0.4-6.1-6.9-7.6-16.8c-0.6-5.2-0.5-13.3-0.5-13.3l0.2-56.1
				l-21.1,9.6c-1,0.5-7.4,3.9-12.1,4.3c-2.7,0.3-8,0.1-12.2-3.7c-3.5-3.2-5.3-8-5.3-14.3c0,0,0,0,0,0l0.2-35.6
				c0-9.9,5.9-14.4,10.9-16.4c0.6-0.2,5.2-1.9,9.4-1.9l61.1,0c2.4-0.1,24.5,0.2,35,11.6c0.1,0.1,7,6.7,9.5,16.3l0,0
				c0,0,1.5,4.2,1.5,11.3v79.5c0,0.5,0.3,7.1-1.4,12c-0.4,1.5-2.4,8.7-7.9,14.9c-0.1,0.2-10.1,13.3-29.2,13.5
				C199.7,193,199.3,193,198.7,193z M166.4,78.9c1,0,1.9,0.3,2.7,0.8c1.4,0.9,2.3,2.5,2.3,4.3l-0.2,21.5c0,0-0.1,35.3,0.1,47.9
				c0,2.2,0.6,7.4,1.5,9.8c1.7,4.9,4.1,8.1,4.7,8.8c9.8,11.8,21.4,11,21.9,11c14.3-0.2,21.6-9.4,21.9-9.8c4.5-5.2,6-11,6-11.1
				c0-0.2,0.1-0.3,0.1-0.5c0.9-2.7,1-7.2,0.9-8.8l0-79.8c0-5.3-1-8.3-1-8.3c-1.9-7.2-7-12.2-7.1-12.2c-6.6-7.1-22.2-8.6-27.8-8.6
				c0,0-0.1,0-0.1,0l-61.1,0c-2,0-4.9,0.9-5.8,1.2c-4.1,1.7-4.5,4.4-4.5,7l-0.2,35.7c0,2.3,0.3,5.3,2,6.8c1.4,1.3,3.6,1.2,4.5,1.2
				c1.9-0.2,6.3-2.1,8.6-3.3l28.5-13.1C165,79,165.7,78.9,166.4,78.9z"/>
		</g>
		<g>
			<path class="st0" d="M279.4,193c-43.9,0-79.6-35.7-79.6-79.6s35.7-79.6,79.6-79.6S359,69.5,359,113.4S323.3,193,279.4,193z
				 M279.4,43.9c-38.3,0-69.5,31.2-69.5,69.5c0,38.3,31.2,69.5,69.5,69.5s69.5-31.2,69.5-69.5C348.9,75.1,317.8,43.9,279.4,43.9z"/>
		</g>
	</g>
</g>
</svg>
