<?xml version="1.0" encoding="utf-8"?>
<!-- Generator: Adobe Illustrator 26.0.0, SVG Export Plug-In . SVG Version: 6.00 Build 0)  -->
<svg version="1.1" id="Layer_1" xmlns="http://www.w3.org/2000/svg" xmlns:xlink="http://www.w3.org/1999/xlink" x="0px" y="0px"
	 viewBox="0 0 141.7 141.7" style="enable-background:new 0 0 141.7 141.7;" xml:space="preserve">
<style type="text/css">
	.st0{fill:#F5AFB0;}
	.st1{fill:#EA5929;}
	.st2{fill:#453188;}
	.st3{fill:#FCF9F6;}
	.st4{fill:#EC6247;}
	.st5{fill:#43358A;}
</style>
<path class="st5" d="M89.3,85.4c0,0-0.1,0-0.1,0L90.7,56c0.2,0,0.4,0,0.6,0c4.5,0,8.1-3.6,8.1-8.1c0-4.5-3.6-8.1-8.1-8.1
	c-4.5,0-8.1,3.6-8.1,8.1c0,1.3,0.3,2.5,0.9,3.6l-26.3,9.2c-1.3-2.8-4.1-4.7-7.4-4.7c-4.5,0-8.1,3.6-8.1,8.1c0,4.5,3.6,8.1,8.1,8.1
	c4.5,0,8.1-3.6,8.1-8.1c0-0.7-0.1-1.3-0.2-2l26.6-9.3c0.4,0.6,1,1.1,1.5,1.5L58,87.3c-1.4-1-3.1-1.7-4.9-1.7c-4.5,0-8.1,3.6-8.1,8.1
	c0,4.5,3.6,8.1,8.1,8.1c4.5,0,8.1-3.6,8.1-8.1c0-2.1-0.8-4-2.1-5.4l28.6-33.1c0.5,0.2,1,0.4,1.5,0.6l-1.5,29.8
	c-3.7,0.7-6.5,4-6.5,7.9c0,4.5,3.6,8.1,8.1,8.1c4.5,0,8.1-3.6,8.1-8.1C97.4,89.1,93.8,85.4,89.3,85.4z"/>
</svg>
